PathFileType	4	(X/Y/Z)	C:/Users/opensim2020/Desktop/walking_exp_matlab/subject03_walking04_straight_04.trc	
DataRate	CameraRate	NumFrames	NumMarkers	Units	OrigDataRate	OrigDataStartFrame	OrigNumFrames	
100.00	100.00	8	51	mm	100.00	3209	293	
Frame#	Time	LFHD			RFHD			LBHD			RBHD			C7			T10			CLAV			STRN			RBAK			LSHO			LUPA			LELB			LFRM			LWRA			LWRB			LFIN			RSHO			RUPA			RELB			RFRM			RWRA			RWRB			RFIN			LASI			RASI			LPSI			RPSI			LTHI			LKNE			LTIB			LANK			LHEE			LTOE			RTHI			RKNE			RTIB			RANK			RHEE			RTOE			*39			*40			*41			*42			*43			*44			*45			*46			*47			*48			*49			*50			
		X1	Y1	Z1	X2	Y2	Z2	X3	Y3	Z3	X4	Y4	Z4	X5	Y5	Z5	X6	Y6	Z6	X7	Y7	Z7	X8	Y8	Z8	X9	Y9	Z9	X10	Y10	Z10	X11	Y11	Z11	X12	Y12	Z12	X13	Y13	Z13	X14	Y14	Z14	X15	Y15	Z15	X16	Y16	Z16	X17	Y17	Z17	X18	Y18	Z18	X19	Y19	Z19	X20	Y20	Z20	X21	Y21	Z21	X22	Y22	Z22	X23	Y23	Z23	X24	Y24	Z24	X25	Y25	Z25	X26	Y26	Z26	X27	Y27	Z27	X28	Y28	Z28	X29	Y29	Z29	X30	Y30	Z30	X31	Y31	Z31	X32	Y32	Z32	X33	Y33	Z33	X34	Y34	Z34	X35	Y35	Z35	X36	Y36	Z36	X37	Y37	Z37	X38	Y38	Z38	X39	Y39	Z39	X40	Y40	Z40	X41	Y41	Z41	X42	Y42	Z42	X43	Y43	Z43	X44	Y44	Z44	X45	Y45	Z45	X46	Y46	Z46	X47	Y47	Z47	X48	Y48	Z48	X49	Y49	Z49	X50	Y50	Z50	X51	Y51	Z51	

184	1.830	1680.99158	-165.44701	1626.81885	1548.01648	-157.29811	1629.03052	1683.33704	-39.97418	1575.28027	1552.23511	-36.31145	1577.98572	1620.81238	-10.29196	1423.00879	1618.47375	28.33286	1109.38025	1622.45898	-130.84888	1343.41479	1629.42322	-170.11494	1178.18311	1520.86902	43.82531	1250.96204	1776.70850	-83.67942	1381.39282	1843.44092	-84.87205	1184.03101	1851.75610	-104.87116	1062.04688	1849.58118	-143.33504	937.33081	1817.67615	-172.18556	821.84253	1869.07629	-149.81497	824.63989	1858.70374	-170.48131	742.55560	1462.17529	-92.99146	1369.63660	1390.70972	-106.86646	1147.27100	1380.80933	-130.90114	1036.64880	1381.26074	-156.92253	902.30859	1421.78845	-186.83292	808.78809	1372.43896	-164.63408	803.20850	1383.69580	-189.65076	733.80750	1743.16663	-137.85201	947.37079	1504.84717	-148.62863	948.44824	1687.10083	22.64990	959.78052	1538.03979	14.08532	973.81177	1794.38562	-148.46713	645.78723	1773.06238	-200.42747	473.64090	1764.64551	-70.07389	326.05560	1719.05249	58.02542	164.34920	1677.02917	110.23215	157.37956	1701.34045	-40.81252	55.54020	1471.03845	-97.98628	651.83514	1511.33728	-106.85107	472.23285	1508.76428	-56.58137	287.17676	1561.35315	-21.00565	74.37027	1611.23865	24.43335	42.56150	1576.60901	-162.45496	37.45968																																				 
185	1.840	1682.18896	-174.72559	1626.12268	1549.18628	-167.04251	1628.98962	1683.89832	-49.03343	1575.09717	1552.85046	-45.74894	1578.46545	1620.79382	-19.28368	1422.96570	1618.11926	19.50753	1109.03467	1622.68066	-139.48572	1343.24023	1629.28918	-178.75085	1177.95947	1519.97412	34.56624	1251.11084	1776.80725	-91.68317	1381.11951	1844.04150	-90.59721	1183.66931	1852.84888	-109.06998	1061.53857	1851.32446	-146.25056	936.47559	1820.05322	-174.17261	820.40930	1871.30518	-151.47728	823.92175	1861.66260	-171.14044	741.52362	1462.48706	-102.29885	1370.04944	1390.42126	-119.04408	1148.23022	1380.39624	-144.88425	1037.96326	1380.64526	-172.80162	904.08325	1421.26587	-203.32727	810.58704	1371.62390	-182.09415	805.09912	1382.92712	-207.97633	735.98358	1742.85193	-147.05112	947.85663	1504.65308	-156.70615	947.83667	1687.82141	13.50493	959.69562	1538.60254	5.80482	973.62354	1794.22485	-161.74149	647.24237	1771.82007	-216.22273	475.90689	1764.36255	-90.80811	323.45386	1719.68298	31.44460	156.67055	1677.95361	83.55679	146.84898	1701.61951	-73.56301	53.94707	1471.18103	-104.13200	651.32465	1511.38000	-111.53394	471.74237	1508.94092	-59.39079	287.13550	1561.40479	-21.30542	74.63382	1611.17896	24.50907	43.14927	1576.61206	-162.52585	37.38805																																				 
186	1.850	1683.33789	-184.02567	1625.37769	1550.33655	-176.64679	1628.84399	1684.55347	-58.08439	1574.89551	1553.46240	-55.15478	1578.86218	1620.74023	-27.99119	1422.88452	1618.03210	10.87751	1108.94226	1622.92859	-148.20253	1342.91577	1629.25635	-187.44144	1177.74976	1519.17737	25.16369	1251.06665	1776.99805	-99.87906	1380.71753	1844.74902	-96.40665	1183.15454	1854.06885	-113.31110	1060.86548	1853.13452	-149.21405	935.45984	1822.52075	-176.27258	819.09076	1873.36292	-152.86272	822.80017	1864.44519	-172.02905	740.42578	1462.76245	-111.70397	1370.26575	1390.06567	-131.07739	1149.00525	1379.82715	-158.63654	1039.20703	1379.98462	-188.63602	905.74591	1420.48877	-220.68433	812.82263	1370.82788	-199.38681	806.90802	1382.12756	-226.27802	738.06573	1742.51233	-156.32651	948.15210	1504.59692	-164.50771	947.09766	1688.76001	4.70307	959.80005	1539.26855	-2.39072	973.43390	1793.56348	-173.38445	648.18329	1770.70862	-231.61723	478.13974	1764.03235	-111.36210	320.73871	1720.63330	4.03927	148.65189	1678.72424	56.22405	136.05234	1701.65393	-106.16479	51.82204	1471.44189	-110.22223	650.80981	1511.46985	-116.21638	471.15131	1509.22290	-62.14274	287.03741	1561.55359	-21.65372	75.01871	1611.02808	24.18012	43.55247	1576.36694	-162.48611	37.39315																																				 
187	1.860	1684.45313	-193.29097	1624.53174	1551.47522	-186.26889	1628.63977	1685.16711	-67.17438	1574.54590	1554.04285	-64.56119	1579.11584	1620.75952	-36.96925	1422.62891	1618.02002	2.22554	1108.65002	1623.18701	-156.94572	1342.64026	1629.23901	-196.05716	1177.43530	1518.57446	16.13099	1251.07043	1777.23633	-108.05168	1380.11182	1845.52356	-102.26894	1182.51831	1855.39087	-117.51022	1060.07385	1855.02844	-152.02518	934.31799	1824.92065	-178.33244	817.70099	1875.58289	-154.41370	821.75580	1867.00391	-173.11710	739.21619	1463.12207	-120.87152	1370.45386	1389.74194	-142.99017	1149.69043	1379.26489	-172.10013	1040.30554	1379.37488	-204.32835	907.32489	1419.78650	-238.01532	814.95020	1370.06360	-216.58710	808.66614	1381.65405	-244.14682	740.09735	1742.26404	-165.55148	948.29443	1504.41895	-172.65836	946.46893	1689.67847	-4.20190	959.70166	1539.97437	-10.59812	973.15924	1793.69910	-186.84491	649.63580	1769.49194	-245.95103	479.99963	1763.70862	-131.62157	317.88367	1720.55383	-23.84646	140.53651	1679.01917	27.75284	124.99287	1702.04285	-139.13820	49.80784	1471.68188	-116.10903	650.16077	1511.60791	-120.91029	470.58435	1509.54407	-64.86221	286.91605	1561.60571	-22.05392	75.30476	1611.37158	23.79170	43.96310	1576.36841	-162.58957	37.33257																																				 
188	1.870	1685.53308	-202.57681	1623.65393	1552.56714	-195.74475	1628.36328	1685.85645	-76.35383	1574.11755	1554.77551	-74.00807	1579.23169	1621.11450	-45.71540	1422.38586	1618.04248	-6.52663	1108.33850	1623.42798	-165.72537	1342.26477	1629.27222	-204.87775	1177.06311	1517.99524	7.02338	1250.88135	1777.60583	-116.40054	1379.39319	1846.32996	-108.19012	1181.74854	1856.74829	-121.57278	1059.16418	1857.04150	-154.92494	933.16486	1827.33740	-180.51553	816.36169	1877.66846	-156.15808	820.51825	1869.49341	-174.66246	738.05890	1463.42578	-130.02853	1370.24915	1389.34607	-154.50945	1150.20679	1378.67578	-185.41135	1041.29199	1378.73853	-219.77164	908.86255	1419.06616	-255.04143	817.03400	1369.50635	-233.69481	810.41211	1380.95679	-262.30133	742.26038	1741.98914	-174.85469	948.35034	1504.33044	-180.61668	945.73230	1690.49756	-13.32574	959.31415	1540.74011	-18.74051	972.73975	1793.70422	-198.97258	650.65137	1768.46204	-259.75952	481.77881	1763.35840	-151.56831	314.96597	1721.10046	-52.11766	132.61510	1679.56067	-1.76630	113.72646	1702.57385	-172.22087	47.88032	1471.93127	-121.97269	649.56146	1511.76892	-125.51985	469.98160	1509.96008	-67.59020	286.80554	1561.76453	-22.43434	75.58436	1611.55261	23.72690	44.59406	1576.38269	-162.70099	37.29883																																				 
189	1.880	1686.57813	-211.89531	1622.72937	1553.63965	-205.27351	1628.01294	1686.53894	-85.51579	1573.56799	1555.54248	-83.29230	1579.27466	1621.27002	-54.67000	1421.91199	1618.09558	-15.38192	1107.89636	1623.75171	-174.62465	1341.75488	1629.34338	-213.72438	1176.55798	1517.76489	-2.07436	1250.61633	1777.98816	-124.88951	1378.56128	1847.13855	-114.24825	1180.87402	1858.25598	-125.65443	1058.23071	1859.01294	-157.78116	931.93500	1829.73584	-182.91530	815.01959	1879.71228	-157.91260	819.24335	1871.76672	-176.17644	736.76996	1463.75452	-139.23212	1369.98535	1389.05078	-166.17609	1150.62622	1378.09753	-198.57852	1042.19263	1378.13293	-235.10851	910.38037	1418.43982	-271.81253	819.09076	1368.90881	-250.58725	812.07227	1380.40784	-280.26532	744.29718	1741.72852	-184.22740	948.33728	1504.19788	-188.38283	944.94171	1691.44189	-22.30881	958.96771	1541.60718	-26.85848	972.22656	1793.80054	-210.81398	651.53033	1767.59851	-272.88022	483.26620	1762.88110	-171.49858	311.95673	1721.36646	-81.56968	123.89075	1679.70483	-31.44112	103.13371	1703.29846	-205.62936	46.33776	1472.31311	-127.71304	648.91296	1511.97754	-130.03934	469.35742	1510.33972	-70.19412	286.69006	1562.10486	-22.73060	75.92847	1611.69727	23.60166	45.13011	1576.34668	-162.82018	37.25854																																				 
190	1.890	1687.60571	-221.25165	1621.73413	1554.60620	-214.61014	1627.52112	1687.25562	-94.70431	1572.88538	1556.26746	-92.66047	1579.11621	1621.55200	-63.78841	1421.32288	1618.39441	-24.16781	1107.43127	1624.04333	-183.49280	1341.06921	1629.38611	-222.55489	1175.88538	1517.64587	-11.21072	1250.24963	1778.48157	-133.39539	1377.62866	1847.99768	-120.38769	1179.91064	1859.78503	-129.79475	1057.22278	1860.99316	-160.67967	930.61761	1832.07605	-185.21442	813.63049	1881.75830	-159.68500	817.96643	1874.02051	-177.81740	735.48291	1464.15552	-148.38976	1369.57019	1388.73792	-177.46552	1150.90051	1377.62671	-211.49712	1043.04260	1377.64258	-250.29889	911.78986	1417.81824	-288.66257	821.20728	1368.30505	-267.17258	813.67920	1380.00928	-298.16815	746.42786	1741.59900	-193.65468	948.14948	1503.99658	-196.48201	944.25958	1692.46936	-31.19562	958.60919	1542.57654	-34.93548	971.64832	1794.13684	-222.50938	652.32458	1766.77332	-285.22534	484.50491	1762.64368	-190.90894	308.77817	1720.99500	-111.03806	116.21000	1680.08130	-62.35011	92.31287	1704.22119	-239.12904	45.26718	1472.80725	-133.58298	648.23083	1512.16882	-134.34958	468.75824	1510.69275	-72.76952	286.61560	1562.31042	-22.96092	76.23529	1612.01160	23.65810	45.86586	1576.46265	-162.97597	37.21301																																				 
191	1.900	1688.54749	-230.61739	1620.74402	1555.56824	-224.04269	1627.01501	1688.06165	-103.99612	1572.12659	1557.09167	-101.96122	1578.76123	1621.99756	-72.90977	1420.76587	1618.64905	-33.06388	1106.76270	1624.35938	-192.35164	1340.27283	1629.55334	-231.69669	1175.24451	1517.67493	-20.27542	1249.67529	1779.04114	-142.15475	1376.63708	1848.82007	-126.51342	1178.87341	1861.31970	-133.98779	1056.15503	1862.97046	-163.56976	929.35651	1834.36487	-187.55202	812.21960	1883.72229	-161.47937	816.67798	1876.17090	-179.56407	734.19305	1464.54797	-157.52475	1369.07068	1388.60486	-188.78458	1151.06506	1377.22205	-224.31178	1043.71777	1377.19861	-265.21442	913.18146	1417.38818	-305.36386	823.48553	1368.25537	-283.67682	815.23755	1379.73560	-315.74579	748.54407	1741.56763	-202.98123	947.78583	1503.75464	-203.70244	943.19934	1693.41675	-40.14050	958.14233	1543.49719	-43.09881	970.91565	1794.58972	-233.78285	652.87628	1766.05676	-296.78622	485.32370	1762.65491	-210.00340	305.56488	1721.40137	-140.79947	108.81664	1680.02185	-93.97401	81.65607	1705.46716	-272.67871	44.80660	1473.45422	-139.45869	647.59338	1512.37988	-138.64769	468.16534	1511.05334	-75.22948	286.58780	1562.53784	-23.10777	76.81525	1612.22559	23.55635	46.49722	1576.49304	-163.07004	37.18859																																				 
